<svg id="_x33_0" enable-background="new 0 0 64 64" height="512" viewBox="0 0 64 64" width="512" xmlns="http://www.w3.org/2000/svg"><g><path d="m46.799 42.124c-.942-2.624-3.226-4.594-5.96-5.141l-3.152-.63c-1.497-.299-2.703-1.444-3.086-2.92-.818.357-1.698.567-2.601.567s-1.783-.21-2.601-.567c-.383 1.476-1.589 2.62-3.086 2.92l-3.152.63c-2.734.547-5.018 2.517-5.96 5.141l-6.779 18.876h-9.422v2h62v-2h-9.422zm-7.799 6.876c.552 0 1 .448 1 1s-.448 1-1 1-1-.448-1-1 .448-1 1-1zm-14 0c.552 0 1 .448 1 1s-.448 1-1 1-1-.448-1-1 .448-1 1-1zm15.201 12c-.807-1.436-1.849-3.676-2.125-6.028-.182.014-.363.028-.548.028-2.148 0-4.125-.87-5.528-2.374-1.401 1.504-3.37 2.374-5.464 2.374-.214 0-.424-.014-.633-.032-.274 2.353-1.31 4.596-2.111 6.032h-8.473l4.03-11.221c-.226-.711-.349-1.467-.349-2.251 0-1.154.272-2.309.789-3.341l1.317-2.634 1.789.895-1.317 2.633c-.378.755-.578 1.602-.578 2.447 0 3.017 2.455 5.472 5.472 5.472 1.898 0 3.6-.911 4.617-2.437l.911-1.368.911 1.37c1.017 1.524 2.719 2.435 4.553 2.435 3.081 0 5.536-2.455 5.536-5.472 0-.845-.2-1.691-.578-2.448l-1.317-2.633 1.789-.895 1.317 2.633c.517 1.034.789 2.189.789 3.343 0 .785-.123 1.541-.348 2.252l4.03 11.22z"/><path d="m38.605 18c-2.338 0-4.608-.626-6.605-1.818-.735.438-1.508.799-2.306 1.081-.444-.484-.694-1.102-.694-1.763 0-.7.272-1.358.768-1.854l.879-.879c.873-.872 1.353-2.033 1.353-3.267s-.48-2.395-1.354-3.268l-.939-.939-1.414 1.414.939.939c.496.496.768 1.154.768 1.854s-.272 1.358-.768 1.854l-.879.879c-.873.872-1.353 2.033-1.353 3.267 0 .823.231 1.605.633 2.299-.735.129-1.483.201-2.238.201h-.395v4.19c0 3.395 1.496 6.588 4.104 8.762 1.624 1.352 4.169 1.352 5.793 0 2.607-2.174 4.103-5.368 4.103-8.762v-4.19zm-6.605 11c-1.657 0-3-1.343-3-3 0-.552.448-1 1-1h4c.552 0 1 .448 1 1 0 1.657-1.343 3-3 3z"/><path d="m3.466 44.046 1.038.623c.923.553 1.496 1.565 1.496 2.641 0 .823-.32 1.596-.902 2.178l-.391.391c-1.101 1.1-1.707 2.564-1.707 4.121s.606 3.021 1.707 4.121l.586.586 1.414-1.414-.586-.586c-.723-.723-1.121-1.685-1.121-2.707s.398-1.984 1.121-2.707l.391-.391c.96-.96 1.488-2.235 1.488-3.592 0-1.774-.945-3.443-2.466-4.356l-1.038-.623c-.923-.553-1.496-1.565-1.496-2.641 0-.823.32-1.596.902-2.178l.478-.478c.498 1.439 1.455 2.702 2.747 3.563l.448.298 1.109-1.664-.448-.298c-1.333-.889-2.169-2.375-2.237-3.976l-.096-2.275-3.416 3.416c-.959.96-1.487 2.235-1.487 3.592 0 1.774.945 3.443 2.466 4.356z"/><path d="m19 31.5c0 1.629.772 3.112 2.052 4.053.554-.221 1.123-.412 1.717-.53l1.08-.216-1.166-.583c-1.038-.519-1.683-1.563-1.683-2.724 0-1.923-1.068-3.652-2.789-4.513l-1.764-.882-.895 1.789 1.764.882c1.039.52 1.684 1.563 1.684 2.724z"/><path d="m8.645 34.596.854.684c.954.763 1.501 1.902 1.501 3.123v1.597h2v-1.597c0-1.833-.821-3.541-2.251-4.685l-.854-.684c-1.205-.962-1.895-2.399-1.895-3.94 0-1.881 1.023-3.569 2.65-4.442-.453 2.304.594 4.661 2.608 5.87 1.075.644 1.742 1.823 1.742 3.076v2.402h2v-2.402c0-1.952-1.04-3.788-2.713-4.792-1.297-.778-1.969-2.297-1.672-3.781l.728-3.639-2.913 1.165c-2.691 1.076-4.43 3.645-4.43 6.543 0 2.152.964 4.158 2.645 5.502z"/><path d="m33.187 3.744c.36 1.479 1.226 2.816 2.462 3.744.845.634 1.35 1.644 1.35 2.7 0 .902-.351 1.75-.989 2.387l-1.718 1.718 1.414 1.414 1.718-1.718c1.017-1.015 1.576-2.365 1.576-3.801 0-1.683-.804-3.291-2.15-4.3-1.159-.869-1.85-2.253-1.85-3.7v-2.057l-4.555 3.037 1.109 1.664z"/><path d="m21.765 3.649c.559.852 1.286 1.586 2.136 2.153.688.459 1.099 1.227 1.099 2.054 0 .941-.523 1.787-1.367 2.208l-.083.042.979 1.747c1.524-.762 2.471-2.293 2.471-3.997 0-1.497-.744-2.887-1.99-3.718-.808-.538-1.464-1.282-1.898-2.15l-.838-1.676-2.981 2.981 1.414 1.414z"/><path d="m17.942 14.356c.682.683 1.058 1.59 1.058 2.555 0 .558-.132 1.116-.381 1.616l-.513 1.026 1.789.895.513-1.026c.387-.777.592-1.645.592-2.511 0-1.5-.584-2.909-1.644-3.969l-.724-.724c-.407-.407-.632-.95-.632-1.527 0-.724.359-1.396.962-1.797l1.593-1.062-1.109-1.664-1.593 1.062c-1.161.773-1.853 2.067-1.853 3.461 0 1.111.433 2.156 1.218 2.941z"/><path d="m13.737 19.715 1.021.255.484-1.94-1.02-.255c-1.308-.327-2.222-1.498-2.222-2.846 0-.453.107-.907.31-1.312l1.584-3.169-1.789-.895-1.584 3.169c-.341.681-.521 1.445-.521 2.207 0 2.268 1.537 4.236 3.737 4.786z"/><path d="m23.297 25.64c-1.562-.313-2.845-1.445-3.348-2.956l-1.897.632c.73 2.19 2.59 3.832 4.854 4.285l1.37.274c-.332-.705-.59-1.443-.794-2.198z"/><path d="m55.764 38.934-.448.298 1.109 1.664.448-.298c1.292-.861 2.25-2.125 2.747-3.563l.478.478c.582.581.902 1.354.902 2.177 0 1.076-.573 2.088-1.496 2.641l-1.038.623c-1.521.913-2.466 2.582-2.466 4.356 0 1.357.528 2.632 1.488 3.592l.391.391c.723.723 1.121 1.685 1.121 2.707s-.398 1.984-1.121 2.707l-.586.586 1.414 1.414.586-.586c1.101-1.1 1.707-2.564 1.707-4.121s-.606-3.021-1.707-4.121l-.391-.391c-.582-.582-.902-1.355-.902-2.178 0-1.076.573-2.088 1.496-2.641l1.038-.623c1.521-.913 2.466-2.582 2.466-4.356 0-1.357-.528-2.632-1.488-3.592l-3.416-3.416-.096 2.275c-.066 1.602-.903 3.088-2.236 3.977z"/><path d="m45.789 26.987c-1.721.861-2.789 2.59-2.789 4.513 0 1.161-.645 2.205-1.683 2.724l-1.166.583 1.08.216c.594.119 1.163.309 1.717.53 1.28-.941 2.052-2.424 2.052-4.053 0-1.161.645-2.204 1.683-2.724l1.764-.882-.895-1.789z"/><path d="m47 36h2v-2.402c0-1.253.667-2.432 1.742-3.077 2.015-1.208 3.061-3.565 2.608-5.87 1.626.874 2.65 2.561 2.65 4.442 0 1.542-.69 2.978-1.895 3.941l-.854.684c-1.43 1.145-2.251 2.852-2.251 4.685v1.597h2v-1.597c0-1.222.547-2.36 1.501-3.124l.854-.684c1.681-1.343 2.645-3.349 2.645-5.501 0-2.898-1.739-5.466-4.43-6.543l-2.913-1.165.728 3.64c.296 1.483-.375 3.002-1.672 3.78-1.673 1.004-2.713 2.84-2.713 4.792z"/><path d="m44.644 12.942c-1.06 1.06-1.644 2.47-1.644 3.969 0 .866.205 1.734.592 2.51l.513 1.026 1.789-.895-.513-1.025c-.25-.5-.381-1.059-.381-1.616 0-.965.376-1.873 1.058-2.555l.724-.724c.785-.785 1.218-1.83 1.218-2.941 0-1.394-.692-2.688-1.853-3.461l-1.593-1.062-1.109 1.664 1.593 1.062c.603.401.962 1.073.962 1.797 0 .577-.225 1.12-.632 1.527z"/><path d="m50.263 19.715c2.2-.55 3.737-2.519 3.737-4.787 0-.762-.18-1.525-.521-2.207l-1.584-3.169-1.789.895 1.585 3.17c.203.405.31.858.31 1.312 0 1.349-.914 2.519-2.222 2.846l-1.021.255.484 1.94z"/><path d="m45.949 23.316-1.897-.632c-.503 1.511-1.787 2.643-3.349 2.956l-.183.037c-.204.756-.462 1.493-.794 2.198l1.37-.274c2.263-.453 4.123-2.095 4.853-4.285z"/></g></svg>